<mxfile host="65bd71144e">
    <diagram name="Edge" id="qp0VZCT2iei24g2Qt4Ns">
        <mxGraphModel dx="1418" dy="703" grid="1" gridSize="10" guides="1" tooltips="1" connect="1" arrows="1" fold="1" page="1" pageScale="1" pageWidth="827" pageHeight="1169" math="0" shadow="0">
            <root>
                <mxCell id="0"/>
                <mxCell id="1" parent="0"/>
                <mxCell id="oxkn1uonwFxsReIIlZtN-1" value="" style="rounded=1;whiteSpace=wrap;html=1;" parent="1" vertex="1">
                    <mxGeometry x="180" y="160" width="540" height="420" as="geometry"/>
                </mxCell>
                <mxCell id="oxkn1uonwFxsReIIlZtN-5" style="edgeStyle=orthogonalEdgeStyle;rounded=0;orthogonalLoop=1;jettySize=auto;html=1;" parent="1" source="X2oRVA81rcyEsRS6bAHa-3" target="oxkn1uonwFxsReIIlZtN-3" edge="1">
                    <mxGeometry relative="1" as="geometry">
                        <Array as="points">
                            <mxPoint x="215" y="240"/>
                        </Array>
                        <mxPoint x="214.5999999999999" y="230" as="sourcePoint"/>
                    </mxGeometry>
                </mxCell>
                <mxCell id="oxkn1uonwFxsReIIlZtN-7" style="edgeStyle=orthogonalEdgeStyle;rounded=0;orthogonalLoop=1;jettySize=auto;html=1;startArrow=classic;startFill=1;" parent="1" source="oxkn1uonwFxsReIIlZtN-3" target="oxkn1uonwFxsReIIlZtN-4" edge="1">
                    <mxGeometry relative="1" as="geometry">
                        <Array as="points">
                            <mxPoint x="479" y="300"/>
                            <mxPoint x="280" y="300"/>
                        </Array>
                    </mxGeometry>
                </mxCell>
                <mxCell id="3" style="edgeStyle=none;html=1;startArrow=none;startFill=0;" parent="1" source="oxkn1uonwFxsReIIlZtN-3" edge="1">
                    <mxGeometry relative="1" as="geometry">
                        <mxPoint x="799.9999999999995" y="240.45661450924604" as="targetPoint"/>
                    </mxGeometry>
                </mxCell>
                <mxCell id="oxkn1uonwFxsReIIlZtN-3" value="&lt;b&gt;Greengrass StreamManager&lt;/b&gt;" style="sketch=0;outlineConnect=0;fontColor=#232F3E;gradientColor=none;fillColor=#3F8624;strokeColor=none;dashed=0;verticalLabelPosition=top;verticalAlign=bottom;align=center;html=1;fontSize=12;fontStyle=0;aspect=fixed;pointerEvents=1;shape=mxgraph.aws4.iot_greengrass_stream_manager;labelPosition=center;" parent="1" vertex="1">
                    <mxGeometry x="440" y="210" width="78" height="60" as="geometry"/>
                </mxCell>
                <mxCell id="oxkn1uonwFxsReIIlZtN-9" style="edgeStyle=orthogonalEdgeStyle;rounded=0;orthogonalLoop=1;jettySize=auto;html=1;startArrow=classic;startFill=1;" parent="1" source="oxkn1uonwFxsReIIlZtN-4" target="oxkn1uonwFxsReIIlZtN-8" edge="1">
                    <mxGeometry relative="1" as="geometry"/>
                </mxCell>
                <mxCell id="oxkn1uonwFxsReIIlZtN-4" value="&lt;div style=&quot;&quot;&gt;&lt;span style=&quot;background-color: initial;&quot;&gt;&lt;i&gt;Greengrass Component&lt;/i&gt;&lt;/span&gt;&lt;/div&gt;&lt;div style=&quot;&quot;&gt;&lt;span style=&quot;background-color: initial;&quot;&gt;com.devopstar.json.gzip&lt;/span&gt;&lt;/div&gt;&lt;div style=&quot;&quot;&gt;&lt;span style=&quot;background-color: initial;&quot;&gt;&lt;br&gt;&lt;/span&gt;&lt;/div&gt;&lt;div style=&quot;&quot;&gt;&lt;span style=&quot;background-color: initial;&quot;&gt;&lt;b&gt;Processor.StreamName&lt;/b&gt;: BatchMessageStream&lt;/span&gt;&lt;/div&gt;&lt;div style=&quot;&quot;&gt;&lt;b&gt;Processor.BatchSize&lt;/b&gt;&lt;span style=&quot;background-color: initial;&quot;&gt;: 100&lt;/span&gt;&lt;/div&gt;&lt;div style=&quot;&quot;&gt;&lt;span style=&quot;background-color: initial;&quot;&gt;&lt;b&gt;Processor.Interval&lt;/b&gt;: 10&lt;/span&gt;&lt;/div&gt;&lt;div style=&quot;&quot;&gt;&lt;span style=&quot;background-color: initial;&quot;&gt;&lt;b&gt;Processor.Path&lt;/b&gt;: /tmp/greengrass/gzip&lt;/span&gt;&lt;/div&gt;&lt;div style=&quot;&quot;&gt;&lt;span style=&quot;background-color: initial;&quot;&gt;&lt;b&gt;Uploader.BucketName&lt;/b&gt;: robocat-landing&lt;/span&gt;&lt;/div&gt;&lt;div style=&quot;&quot;&gt;&lt;span style=&quot;background-color: initial;&quot;&gt;&lt;b&gt;Uploader.Interval&lt;/b&gt;: 10&lt;/span&gt;&lt;/div&gt;&lt;div style=&quot;&quot;&gt;&lt;span style=&quot;background-color: initial;&quot;&gt;&lt;b&gt;Uploader.Path&lt;/b&gt;: /tmp/greengrass/gzip/*&lt;/span&gt;&lt;/div&gt;&lt;div style=&quot;&quot;&gt;&lt;span style=&quot;background-color: initial;&quot;&gt;&lt;b&gt;LogLevel&lt;/b&gt;: INFO&lt;/span&gt;&lt;/div&gt;" style="sketch=0;outlineConnect=0;fontColor=#232F3E;gradientColor=none;fillColor=#3F8624;strokeColor=none;dashed=0;verticalLabelPosition=middle;verticalAlign=middle;align=left;html=1;fontSize=12;fontStyle=0;aspect=fixed;pointerEvents=1;shape=mxgraph.aws4.iot_greengrass_component;labelPosition=right;spacingLeft=0;spacingRight=4;" parent="1" vertex="1">
                    <mxGeometry x="250" y="370" width="60" height="60" as="geometry"/>
                </mxCell>
                <mxCell id="oxkn1uonwFxsReIIlZtN-6" value="&lt;div style=&quot;text-align: left;&quot;&gt;&lt;b style=&quot;background-color: initial;&quot;&gt;message.payload&lt;/b&gt;&lt;span style=&quot;background-color: initial;&quot;&gt;: &amp;lt;JSON&amp;gt;&lt;/span&gt;&lt;/div&gt;&lt;div style=&quot;text-align: left;&quot;&gt;&lt;b style=&quot;font-weight: bold; background-color: initial;&quot;&gt;stream&lt;/b&gt;&lt;span style=&quot;font-weight: normal; background-color: initial;&quot;&gt;: BatchMessageStream&lt;/span&gt;&lt;/div&gt;" style="text;html=1;strokeColor=none;fillColor=none;align=center;verticalAlign=middle;whiteSpace=wrap;rounded=0;" parent="1" vertex="1">
                    <mxGeometry x="209" y="240" width="171" height="30" as="geometry"/>
                </mxCell>
                <mxCell id="oxkn1uonwFxsReIIlZtN-8" value="/tmp/greengrass/gzip/&lt;b&gt;batch_&amp;lt;x&amp;gt;.jsonl.gzip&lt;/b&gt;" style="image;aspect=fixed;html=1;points=[];align=left;fontSize=12;image=img/lib/azure2/general/Folder_Blank.svg;labelPosition=right;verticalLabelPosition=middle;verticalAlign=middle;" parent="1" vertex="1">
                    <mxGeometry x="245.5" y="500" width="69" height="56.00000000000001" as="geometry"/>
                </mxCell>
                <mxCell id="X2oRVA81rcyEsRS6bAHa-3" value="" style="shape=mxgraph.cisco.misc.page_icon;html=1;pointerEvents=1;dashed=0;fillColor=#036897;strokeColor=#ffffff;strokeWidth=2;verticalLabelPosition=bottom;verticalAlign=top;align=center;outlineConnect=0;labelBackgroundColor=none;comic=1;" parent="1" vertex="1">
                    <mxGeometry x="200" y="190" width="30" height="40" as="geometry"/>
                </mxCell>
            </root>
        </mxGraphModel>
    </diagram>
    <diagram id="2pAhftfALCLMm9PAy9kY" name="Stream Manager Breakdown">
        <mxGraphModel dx="1705" dy="932" grid="1" gridSize="10" guides="1" tooltips="1" connect="1" arrows="1" fold="1" page="1" pageScale="1" pageWidth="850" pageHeight="1100" math="0" shadow="0">
            <root>
                <mxCell id="0"/>
                <mxCell id="1" parent="0"/>
                <mxCell id="37Har65xr3BZg1we1Dzs-1" value="StreamManager" style="rounded=1;whiteSpace=wrap;html=1;" parent="1" vertex="1">
                    <mxGeometry x="365" y="650" width="120" height="30" as="geometry"/>
                </mxCell>
                <mxCell id="37Har65xr3BZg1we1Dzs-2" value="BatchDataStream" style="shape=process;whiteSpace=wrap;html=1;backgroundOutline=1;" parent="1" vertex="1">
                    <mxGeometry x="350" y="700" width="150" height="30" as="geometry"/>
                </mxCell>
                <mxCell id="37Har65xr3BZg1we1Dzs-3" value="&lt;div style=&quot;background-color: rgb(255, 255, 255); line-height: 19px;&quot;&gt;&lt;font style=&quot;font-size: 12px;&quot;&gt;DirectoryUploader&lt;/font&gt;&lt;/div&gt;" style="shape=process;whiteSpace=wrap;html=1;backgroundOutline=1;" parent="1" vertex="1">
                    <mxGeometry x="350" y="740" width="150" height="30" as="geometry"/>
                </mxCell>
                <mxCell id="37Har65xr3BZg1we1Dzs-4" value="&lt;span style=&quot;background-color: rgb(255, 255, 255);&quot;&gt;DirectoryUploader&lt;/span&gt;Status" style="shape=process;whiteSpace=wrap;html=1;backgroundOutline=1;" parent="1" vertex="1">
                    <mxGeometry x="330" y="780" width="190" height="30" as="geometry"/>
                </mxCell>
            </root>
        </mxGraphModel>
    </diagram>
    <diagram id="-Da3nlt2lAYtzhYnRrwG" name="Cloud Overview">
        <mxGraphModel dx="1418" dy="703" grid="1" gridSize="10" guides="1" tooltips="1" connect="1" arrows="1" fold="1" page="1" pageScale="1" pageWidth="850" pageHeight="1100" math="0" shadow="0">
            <root>
                <mxCell id="0"/>
                <mxCell id="1" parent="0"/>
                <mxCell id="A9iJpngH8_NAkGDsHknp-1" style="edgeStyle=none;html=1;startArrow=none;startFill=0;" parent="1" source="A9iJpngH8_NAkGDsHknp-4" target="A9iJpngH8_NAkGDsHknp-10" edge="1">
                    <mxGeometry relative="1" as="geometry"/>
                </mxCell>
                <mxCell id="A9iJpngH8_NAkGDsHknp-2" style="edgeStyle=none;html=1;entryX=0.5;entryY=0;entryDx=0;entryDy=0;entryPerimeter=0;startArrow=none;startFill=0;endArrow=classic;endFill=1;strokeWidth=3;strokeColor=#3399FF;" parent="1" source="A9iJpngH8_NAkGDsHknp-4" target="A9iJpngH8_NAkGDsHknp-6" edge="1">
                    <mxGeometry relative="1" as="geometry">
                        <Array as="points">
                            <mxPoint x="200" y="60"/>
                            <mxPoint x="760" y="60"/>
                        </Array>
                    </mxGeometry>
                </mxCell>
                <mxCell id="A9iJpngH8_NAkGDsHknp-3" value="s3 CopyObject" style="edgeLabel;html=1;align=center;verticalAlign=middle;resizable=0;points=[];" parent="A9iJpngH8_NAkGDsHknp-2" vertex="1" connectable="0">
                    <mxGeometry x="0.0873" y="-1" relative="1" as="geometry">
                        <mxPoint x="103" y="19" as="offset"/>
                    </mxGeometry>
                </mxCell>
                <mxCell id="A9iJpngH8_NAkGDsHknp-4" value="&lt;span style=&quot;text-align: left;&quot;&gt;robocat-&lt;b&gt;landing&lt;/b&gt;&lt;br&gt;(S3)&lt;br&gt;&lt;/span&gt;" style="sketch=0;points=[[0,0,0],[0.25,0,0],[0.5,0,0],[0.75,0,0],[1,0,0],[0,1,0],[0.25,1,0],[0.5,1,0],[0.75,1,0],[1,1,0],[0,0.25,0],[0,0.5,0],[0,0.75,0],[1,0.25,0],[1,0.5,0],[1,0.75,0]];outlineConnect=0;fontColor=#232F3E;gradientColor=#60A337;gradientDirection=north;fillColor=#277116;strokeColor=#ffffff;dashed=0;verticalLabelPosition=bottom;verticalAlign=top;align=center;html=1;fontSize=12;fontStyle=0;aspect=fixed;shape=mxgraph.aws4.resourceIcon;resIcon=mxgraph.aws4.s3;labelPosition=center;" parent="1" vertex="1">
                    <mxGeometry x="170" y="210" width="61" height="61" as="geometry"/>
                </mxCell>
                <mxCell id="A9iJpngH8_NAkGDsHknp-5" value="&lt;span style=&quot;text-align: left;&quot;&gt;s3://robocat-&lt;b&gt;iceberg&lt;/b&gt;&lt;/span&gt;" style="sketch=0;points=[[0,0,0],[0.25,0,0],[0.5,0,0],[0.75,0,0],[1,0,0],[0,1,0],[0.25,1,0],[0.5,1,0],[0.75,1,0],[1,1,0],[0,0.25,0],[0,0.5,0],[0,0.75,0],[1,0.25,0],[1,0.5,0],[1,0.75,0]];outlineConnect=0;fontColor=#232F3E;gradientColor=#60A337;gradientDirection=north;fillColor=#277116;strokeColor=#ffffff;dashed=0;verticalLabelPosition=middle;verticalAlign=middle;align=left;html=1;fontSize=12;fontStyle=0;aspect=fixed;shape=mxgraph.aws4.resourceIcon;resIcon=mxgraph.aws4.s3;labelPosition=right;" parent="1" vertex="1">
                    <mxGeometry x="730" y="359.5" width="61" height="61" as="geometry"/>
                </mxCell>
                <mxCell id="A9iJpngH8_NAkGDsHknp-6" value="&lt;span style=&quot;text-align: left;&quot;&gt;s3://robocat-&lt;b&gt;scratch&lt;/b&gt;&lt;/span&gt;" style="sketch=0;points=[[0,0,0],[0.25,0,0],[0.5,0,0],[0.75,0,0],[1,0,0],[0,1,0],[0.25,1,0],[0.5,1,0],[0.75,1,0],[1,1,0],[0,0.25,0],[0,0.5,0],[0,0.75,0],[1,0.25,0],[1,0.5,0],[1,0.75,0]];outlineConnect=0;fontColor=#232F3E;gradientColor=#60A337;gradientDirection=north;fillColor=#277116;strokeColor=#ffffff;dashed=0;verticalLabelPosition=middle;verticalAlign=middle;align=left;html=1;fontSize=12;fontStyle=0;aspect=fixed;shape=mxgraph.aws4.resourceIcon;resIcon=mxgraph.aws4.s3;labelPosition=right;" parent="1" vertex="1">
                    <mxGeometry x="730" y="209.5" width="61" height="61" as="geometry"/>
                </mxCell>
                <mxCell id="A9iJpngH8_NAkGDsHknp-7" style="edgeStyle=none;html=1;exitX=1;exitY=0.5;exitDx=0;exitDy=0;exitPerimeter=0;entryX=0;entryY=0.5;entryDx=0;entryDy=0;entryPerimeter=0;startArrow=none;startFill=0;endArrow=none;endFill=0;dashed=1;" parent="1" source="A9iJpngH8_NAkGDsHknp-8" target="A9iJpngH8_NAkGDsHknp-21" edge="1">
                    <mxGeometry relative="1" as="geometry"/>
                </mxCell>
                <mxCell id="A9iJpngH8_NAkGDsHknp-8" value="&lt;span style=&quot;text-align: left;&quot;&gt;s3://robocat-&lt;b&gt;athena-queries&lt;/b&gt;&lt;/span&gt;" style="sketch=0;points=[[0,0,0],[0.25,0,0],[0.5,0,0],[0.75,0,0],[1,0,0],[0,1,0],[0.25,1,0],[0.5,1,0],[0.75,1,0],[1,1,0],[0,0.25,0],[0,0.5,0],[0,0.75,0],[1,0.25,0],[1,0.5,0],[1,0.75,0]];outlineConnect=0;fontColor=#232F3E;gradientColor=#60A337;gradientDirection=north;fillColor=#277116;strokeColor=#ffffff;dashed=0;verticalLabelPosition=middle;verticalAlign=middle;align=right;html=1;fontSize=12;fontStyle=0;aspect=fixed;shape=mxgraph.aws4.resourceIcon;resIcon=mxgraph.aws4.s3;labelPosition=left;" parent="1" vertex="1">
                    <mxGeometry x="419.5" y="440" width="60.5" height="60.5" as="geometry"/>
                </mxCell>
                <mxCell id="A9iJpngH8_NAkGDsHknp-9" style="edgeStyle=none;html=1;startArrow=none;startFill=0;" parent="1" source="A9iJpngH8_NAkGDsHknp-10" target="A9iJpngH8_NAkGDsHknp-13" edge="1">
                    <mxGeometry relative="1" as="geometry"/>
                </mxCell>
                <mxCell id="A9iJpngH8_NAkGDsHknp-10" value="s3-event-trigger&lt;br&gt;(EventBridge)" style="sketch=0;points=[[0,0,0],[0.25,0,0],[0.5,0,0],[0.75,0,0],[1,0,0],[0,1,0],[0.25,1,0],[0.5,1,0],[0.75,1,0],[1,1,0],[0,0.25,0],[0,0.5,0],[0,0.75,0],[1,0.25,0],[1,0.5,0],[1,0.75,0]];outlineConnect=0;fontColor=#232F3E;gradientColor=#FF4F8B;gradientDirection=north;fillColor=#BC1356;strokeColor=#ffffff;dashed=0;verticalLabelPosition=bottom;verticalAlign=top;align=center;html=1;fontSize=12;fontStyle=0;aspect=fixed;shape=mxgraph.aws4.resourceIcon;resIcon=mxgraph.aws4.eventbridge;labelPosition=center;" parent="1" vertex="1">
                    <mxGeometry x="300" y="210" width="60" height="60" as="geometry"/>
                </mxCell>
                <mxCell id="A9iJpngH8_NAkGDsHknp-11" style="edgeStyle=none;html=1;startArrow=none;startFill=0;" parent="1" source="A9iJpngH8_NAkGDsHknp-13" target="A9iJpngH8_NAkGDsHknp-18" edge="1">
                    <mxGeometry relative="1" as="geometry"/>
                </mxCell>
                <mxCell id="A9iJpngH8_NAkGDsHknp-12" value="" style="edgeStyle=none;html=1;startArrow=none;startFill=0;endArrow=none;endFill=0;" parent="1" source="A9iJpngH8_NAkGDsHknp-13" target="A9iJpngH8_NAkGDsHknp-18" edge="1">
                    <mxGeometry relative="1" as="geometry"/>
                </mxCell>
                <mxCell id="A9iJpngH8_NAkGDsHknp-13" value="robocat-&lt;b&gt;landing&lt;/b&gt;&lt;br&gt;(SQS)" style="sketch=0;points=[[0,0,0],[0.25,0,0],[0.5,0,0],[0.75,0,0],[1,0,0],[0,1,0],[0.25,1,0],[0.5,1,0],[0.75,1,0],[1,1,0],[0,0.25,0],[0,0.5,0],[0,0.75,0],[1,0.25,0],[1,0.5,0],[1,0.75,0]];outlineConnect=0;fontColor=#232F3E;gradientColor=#FF4F8B;gradientDirection=north;fillColor=#BC1356;strokeColor=#ffffff;dashed=0;verticalLabelPosition=bottom;verticalAlign=top;align=center;html=1;fontSize=12;fontStyle=0;aspect=fixed;shape=mxgraph.aws4.resourceIcon;resIcon=mxgraph.aws4.sqs;labelPosition=center;" parent="1" vertex="1">
                    <mxGeometry x="420" y="210" width="60" height="60" as="geometry"/>
                </mxCell>
                <mxCell id="A9iJpngH8_NAkGDsHknp-14" value="robocat-&lt;b&gt;landing&lt;/b&gt;-dlq&lt;span style=&quot;color: rgba(0, 0, 0, 0); font-family: monospace; font-size: 0px; text-align: start;&quot;&gt;%3CmxGraphModel%3E%3Croot%3E%3CmxCell%20id%3D%220%22%2F%3E%3CmxCell%20id%3D%221%22%20parent%3D%220%22%2F%3E%3CmxCell%20id%3D%222%22%20value%3D%22robocat-%26lt%3Bb%26gt%3Blanding%26lt%3B%2Fb%26gt%3B%26lt%3Bbr%26gt%3B(SQS)%22%20style%3D%22sketch%3D0%3Bpoints%3D%5B%5B0%2C0%2C0%5D%2C%5B0.25%2C0%2C0%5D%2C%5B0.5%2C0%2C0%5D%2C%5B0.75%2C0%2C0%5D%2C%5B1%2C0%2C0%5D%2C%5B0%2C1%2C0%5D%2C%5B0.25%2C1%2C0%5D%2C%5B0.5%2C1%2C0%5D%2C%5B0.75%2C1%2C0%5D%2C%5B1%2C1%2C0%5D%2C%5B0%2C0.25%2C0%5D%2C%5B0%2C0.5%2C0%5D%2C%5B0%2C0.75%2C0%5D%2C%5B1%2C0.25%2C0%5D%2C%5B1%2C0.5%2C0%5D%2C%5B1%2C0.75%2C0%5D%5D%3BoutlineConnect%3D0%3BfontColor%3D%23232F3E%3BgradientColor%3D%23FF4F8B%3BgradientDirection%3Dnorth%3BfillColor%3D%23BC1356%3BstrokeColor%3D%23ffffff%3Bdashed%3D0%3BverticalLabelPosition%3Dtop%3BverticalAlign%3Dbottom%3Balign%3Dcenter%3Bhtml%3D1%3BfontSize%3D12%3BfontStyle%3D0%3Baspect%3Dfixed%3Bshape%3Dmxgraph.aws4.resourceIcon%3BresIcon%3Dmxgraph.aws4.sqs%3BlabelPosition%3Dcenter%3B%22%20vertex%3D%221%22%20parent%3D%221%22%3E%3CmxGeometry%20x%3D%221050%22%20y%3D%22210%22%20width%3D%2260%22%20height%3D%2260%22%20as%3D%22geometry%22%2F%3E%3C%2FmxCell%3E%3C%2Froot%3E%3C%2FmxGraphModel%3E&lt;/span&gt;&lt;br&gt;(SQS)" style="sketch=0;points=[[0,0,0],[0.25,0,0],[0.5,0,0],[0.75,0,0],[1,0,0],[0,1,0],[0.25,1,0],[0.5,1,0],[0.75,1,0],[1,1,0],[0,0.25,0],[0,0.5,0],[0,0.75,0],[1,0.25,0],[1,0.5,0],[1,0.75,0]];outlineConnect=0;fontColor=#232F3E;gradientColor=#FF4F8B;gradientDirection=north;fillColor=#BC1356;strokeColor=#ffffff;dashed=0;verticalLabelPosition=bottom;verticalAlign=top;align=center;html=1;fontSize=12;fontStyle=0;aspect=fixed;shape=mxgraph.aws4.resourceIcon;resIcon=mxgraph.aws4.sqs;labelPosition=center;" parent="1" vertex="1">
                    <mxGeometry x="420" y="100" width="60" height="60" as="geometry"/>
                </mxCell>
                <mxCell id="A9iJpngH8_NAkGDsHknp-15" style="edgeStyle=none;html=1;shadow=0;startArrow=none;startFill=0;endArrow=classic;endFill=1;strokeColor=#3399FF;strokeWidth=3;" parent="1" source="A9iJpngH8_NAkGDsHknp-18" edge="1">
                    <mxGeometry relative="1" as="geometry">
                        <mxPoint x="569.9999999999995" y="59.999999999999886" as="targetPoint"/>
                    </mxGeometry>
                </mxCell>
                <mxCell id="A9iJpngH8_NAkGDsHknp-16" style="edgeStyle=none;html=1;entryX=0.5;entryY=0;entryDx=0;entryDy=0;entryPerimeter=0;shadow=0;strokeColor=#B20000;strokeWidth=3;startArrow=none;startFill=0;endArrow=classic;endFill=1;fillColor=#e51400;" parent="1" source="A9iJpngH8_NAkGDsHknp-18" target="A9iJpngH8_NAkGDsHknp-21" edge="1">
                    <mxGeometry relative="1" as="geometry"/>
                </mxCell>
                <mxCell id="A9iJpngH8_NAkGDsHknp-17" style="edgeStyle=none;html=1;entryX=1;entryY=0.5;entryDx=0;entryDy=0;entryPerimeter=0;shadow=0;strokeColor=#000000;strokeWidth=1;startArrow=none;startFill=0;endArrow=classic;endFill=1;fillColor=#a20025;" parent="1" target="A9iJpngH8_NAkGDsHknp-14" edge="1">
                    <mxGeometry relative="1" as="geometry">
                        <mxPoint x="549.9999999999995" y="210" as="sourcePoint"/>
                        <Array as="points">
                            <mxPoint x="550" y="130"/>
                        </Array>
                    </mxGeometry>
                </mxCell>
                <mxCell id="A9iJpngH8_NAkGDsHknp-18" value="batch-uploader&lt;br&gt;(Lambda)" style="sketch=0;points=[[0,0,0],[0.25,0,0],[0.5,0,0],[0.75,0,0],[1,0,0],[0,1,0],[0.25,1,0],[0.5,1,0],[0.75,1,0],[1,1,0],[0,0.25,0],[0,0.5,0],[0,0.75,0],[1,0.25,0],[1,0.5,0],[1,0.75,0]];outlineConnect=0;fontColor=#232F3E;gradientColor=#F78E04;gradientDirection=north;fillColor=#D05C17;strokeColor=#ffffff;dashed=0;verticalLabelPosition=middle;verticalAlign=middle;align=left;html=1;fontSize=12;fontStyle=0;aspect=fixed;shape=mxgraph.aws4.resourceIcon;resIcon=mxgraph.aws4.lambda;labelPosition=right;" parent="1" vertex="1">
                    <mxGeometry x="540" y="210.5" width="60" height="60" as="geometry"/>
                </mxCell>
                <mxCell id="A9iJpngH8_NAkGDsHknp-19" style="edgeStyle=none;html=1;shadow=0;strokeColor=#B20000;strokeWidth=3;startArrow=none;startFill=0;endArrow=classic;endFill=1;fillColor=#e51400;" parent="1" source="A9iJpngH8_NAkGDsHknp-21" target="A9iJpngH8_NAkGDsHknp-5" edge="1">
                    <mxGeometry relative="1" as="geometry"/>
                </mxCell>
                <mxCell id="A9iJpngH8_NAkGDsHknp-20" value="CreateIcebergTable" style="edgeLabel;html=1;align=center;verticalAlign=middle;resizable=0;points=[];" parent="A9iJpngH8_NAkGDsHknp-19" vertex="1" connectable="0">
                    <mxGeometry x="-0.1496" y="2" relative="1" as="geometry">
                        <mxPoint y="-8" as="offset"/>
                    </mxGeometry>
                </mxCell>
                <mxCell id="A9iJpngH8_NAkGDsHknp-21" value="" style="sketch=0;points=[[0,0,0],[0.25,0,0],[0.5,0,0],[0.75,0,0],[1,0,0],[0,1,0],[0.25,1,0],[0.5,1,0],[0.75,1,0],[1,1,0],[0,0.25,0],[0,0.5,0],[0,0.75,0],[1,0.25,0],[1,0.5,0],[1,0.75,0]];outlineConnect=0;fontColor=#232F3E;gradientColor=#945DF2;gradientDirection=north;fillColor=#5A30B5;strokeColor=#ffffff;dashed=0;verticalLabelPosition=bottom;verticalAlign=top;align=center;html=1;fontSize=12;fontStyle=0;aspect=fixed;shape=mxgraph.aws4.resourceIcon;resIcon=mxgraph.aws4.athena;" parent="1" vertex="1">
                    <mxGeometry x="540.5" y="359.5" width="59.5" height="59.5" as="geometry"/>
                </mxCell>
                <mxCell id="A9iJpngH8_NAkGDsHknp-22" style="edgeStyle=none;html=1;shadow=0;strokeColor=#82b366;strokeWidth=3;startArrow=none;startFill=0;endArrow=classic;endFill=1;fillColor=#d5e8d4;entryX=1;entryY=0.25;entryDx=0;entryDy=0;entryPerimeter=0;" parent="1" source="A9iJpngH8_NAkGDsHknp-25" target="A9iJpngH8_NAkGDsHknp-6" edge="1">
                    <mxGeometry relative="1" as="geometry">
                        <mxPoint x="730" y="469.37976346911955" as="targetPoint"/>
                        <Array as="points">
                            <mxPoint x="930" y="469"/>
                            <mxPoint x="930" y="225"/>
                        </Array>
                    </mxGeometry>
                </mxCell>
                <mxCell id="A9iJpngH8_NAkGDsHknp-23" value="CreateTempTable" style="edgeLabel;html=1;align=center;verticalAlign=middle;resizable=0;points=[];" parent="A9iJpngH8_NAkGDsHknp-22" vertex="1" connectable="0">
                    <mxGeometry x="-0.1496" y="2" relative="1" as="geometry">
                        <mxPoint x="-253" y="-11" as="offset"/>
                    </mxGeometry>
                </mxCell>
                <mxCell id="A9iJpngH8_NAkGDsHknp-24" style="edgeStyle=none;html=1;entryX=1;entryY=0.5;entryDx=0;entryDy=0;entryPerimeter=0;shadow=0;strokeColor=#000000;strokeWidth=1;startArrow=none;startFill=0;endArrow=none;endFill=0;dashed=1;" parent="1" source="A9iJpngH8_NAkGDsHknp-25" target="A9iJpngH8_NAkGDsHknp-8" edge="1">
                    <mxGeometry relative="1" as="geometry"/>
                </mxCell>
                <mxCell id="A9iJpngH8_NAkGDsHknp-25" value="" style="sketch=0;points=[[0,0,0],[0.25,0,0],[0.5,0,0],[0.75,0,0],[1,0,0],[0,1,0],[0.25,1,0],[0.5,1,0],[0.75,1,0],[1,1,0],[0,0.25,0],[0,0.5,0],[0,0.75,0],[1,0.25,0],[1,0.5,0],[1,0.75,0]];outlineConnect=0;fontColor=#232F3E;gradientColor=#945DF2;gradientDirection=north;fillColor=#5A30B5;strokeColor=#ffffff;dashed=0;verticalLabelPosition=bottom;verticalAlign=top;align=center;html=1;fontSize=12;fontStyle=0;aspect=fixed;shape=mxgraph.aws4.resourceIcon;resIcon=mxgraph.aws4.athena;" parent="1" vertex="1">
                    <mxGeometry x="540.5" y="439" width="59.5" height="59.5" as="geometry"/>
                </mxCell>
                <mxCell id="A9iJpngH8_NAkGDsHknp-26" style="edgeStyle=none;html=1;entryX=1;entryY=0.5;entryDx=0;entryDy=0;entryPerimeter=0;shadow=0;dashed=1;strokeColor=#000000;strokeWidth=1;startArrow=none;startFill=0;endArrow=none;endFill=0;" parent="1" source="A9iJpngH8_NAkGDsHknp-27" target="A9iJpngH8_NAkGDsHknp-8" edge="1">
                    <mxGeometry relative="1" as="geometry"/>
                </mxCell>
                <mxCell id="A9iJpngH8_NAkGDsHknp-27" value="" style="sketch=0;points=[[0,0,0],[0.25,0,0],[0.5,0,0],[0.75,0,0],[1,0,0],[0,1,0],[0.25,1,0],[0.5,1,0],[0.75,1,0],[1,1,0],[0,0.25,0],[0,0.5,0],[0,0.75,0],[1,0.25,0],[1,0.5,0],[1,0.75,0]];outlineConnect=0;fontColor=#232F3E;gradientColor=#945DF2;gradientDirection=north;fillColor=#5A30B5;strokeColor=#ffffff;dashed=0;verticalLabelPosition=bottom;verticalAlign=top;align=center;html=1;fontSize=12;fontStyle=0;aspect=fixed;shape=mxgraph.aws4.resourceIcon;resIcon=mxgraph.aws4.athena;" parent="1" vertex="1">
                    <mxGeometry x="540" y="520.5" width="59.5" height="59.5" as="geometry"/>
                </mxCell>
                <mxCell id="A9iJpngH8_NAkGDsHknp-28" style="edgeStyle=none;html=1;shadow=0;strokeColor=#d79b00;strokeWidth=3;startArrow=none;startFill=0;endArrow=classic;endFill=1;exitX=1;exitY=0.5;exitDx=0;exitDy=0;exitPerimeter=0;entryX=0.5;entryY=1;entryDx=0;entryDy=0;entryPerimeter=0;fillColor=#ffe6cc;" parent="1" source="A9iJpngH8_NAkGDsHknp-27" target="A9iJpngH8_NAkGDsHknp-5" edge="1">
                    <mxGeometry relative="1" as="geometry">
                        <mxPoint x="640" y="555.9972798948751" as="sourcePoint"/>
                        <mxPoint x="770" y="556.5097634691195" as="targetPoint"/>
                        <Array as="points">
                            <mxPoint x="760" y="550"/>
                        </Array>
                    </mxGeometry>
                </mxCell>
                <mxCell id="A9iJpngH8_NAkGDsHknp-29" value="CopyFromTempToIceberg" style="edgeLabel;html=1;align=center;verticalAlign=middle;resizable=0;points=[];" parent="A9iJpngH8_NAkGDsHknp-28" vertex="1" connectable="0">
                    <mxGeometry x="-0.1496" y="2" relative="1" as="geometry">
                        <mxPoint x="-52" y="-8" as="offset"/>
                    </mxGeometry>
                </mxCell>
                <mxCell id="A9iJpngH8_NAkGDsHknp-30" style="edgeStyle=none;html=1;shadow=0;strokeColor=#d79b00;strokeWidth=3;startArrow=none;startFill=0;endArrow=classic;endFill=1;exitX=1;exitY=0.75;exitDx=0;exitDy=0;exitPerimeter=0;fillColor=#ffe6cc;entryX=0.5;entryY=1;entryDx=0;entryDy=0;entryPerimeter=0;" parent="1" source="A9iJpngH8_NAkGDsHknp-6" target="A9iJpngH8_NAkGDsHknp-5" edge="1">
                    <mxGeometry relative="1" as="geometry">
                        <mxPoint x="780" y="556" as="sourcePoint"/>
                        <mxPoint x="760" y="550" as="targetPoint"/>
                        <Array as="points">
                            <mxPoint x="920" y="255"/>
                            <mxPoint x="920" y="550"/>
                            <mxPoint x="761" y="550"/>
                        </Array>
                    </mxGeometry>
                </mxCell>
            </root>
        </mxGraphModel>
    </diagram>
    <diagram id="PxCSrcpwF7RW81sQeaRL" name="Cloud Lambda Breakdown">
        <mxGraphModel dx="568" dy="703" grid="1" gridSize="10" guides="1" tooltips="1" connect="1" arrows="1" fold="1" page="1" pageScale="1" pageWidth="850" pageHeight="1100" math="0" shadow="0">
            <root>
                <mxCell id="0"/>
                <mxCell id="1" parent="0"/>
                <mxCell id="5_7ZJfgjhLElHv1Okpnk-1" value="&lt;span style=&quot;text-align: left;&quot;&gt;s3://robocat-&lt;b&gt;iceberg&lt;/b&gt;&lt;/span&gt;" style="sketch=0;points=[[0,0,0],[0.25,0,0],[0.5,0,0],[0.75,0,0],[1,0,0],[0,1,0],[0.25,1,0],[0.5,1,0],[0.75,1,0],[1,1,0],[0,0.25,0],[0,0.5,0],[0,0.75,0],[1,0.25,0],[1,0.5,0],[1,0.75,0]];outlineConnect=0;fontColor=#232F3E;gradientColor=#60A337;gradientDirection=north;fillColor=#277116;strokeColor=#ffffff;dashed=0;verticalLabelPosition=middle;verticalAlign=middle;align=left;html=1;fontSize=12;fontStyle=0;aspect=fixed;shape=mxgraph.aws4.resourceIcon;resIcon=mxgraph.aws4.s3;labelPosition=right;" parent="1" vertex="1">
                    <mxGeometry x="1370" y="380" width="61" height="61" as="geometry"/>
                </mxCell>
                <mxCell id="5_7ZJfgjhLElHv1Okpnk-2" style="edgeStyle=none;html=1;exitX=1;exitY=0.5;exitDx=0;exitDy=0;exitPerimeter=0;entryX=0;entryY=0.5;entryDx=0;entryDy=0;entryPerimeter=0;startArrow=none;startFill=0;endArrow=none;endFill=0;dashed=1;" parent="1" source="5_7ZJfgjhLElHv1Okpnk-3" target="5_7ZJfgjhLElHv1Okpnk-6" edge="1">
                    <mxGeometry relative="1" as="geometry"/>
                </mxCell>
                <mxCell id="5_7ZJfgjhLElHv1Okpnk-3" value="&lt;span style=&quot;text-align: left;&quot;&gt;s3://robocat-&lt;b&gt;athena-queries&lt;/b&gt;&lt;/span&gt;" style="sketch=0;points=[[0,0,0],[0.25,0,0],[0.5,0,0],[0.75,0,0],[1,0,0],[0,1,0],[0.25,1,0],[0.5,1,0],[0.75,1,0],[1,1,0],[0,0.25,0],[0,0.5,0],[0,0.75,0],[1,0.25,0],[1,0.5,0],[1,0.75,0]];outlineConnect=0;fontColor=#232F3E;gradientColor=#60A337;gradientDirection=north;fillColor=#277116;strokeColor=#ffffff;dashed=0;verticalLabelPosition=middle;verticalAlign=middle;align=right;html=1;fontSize=12;fontStyle=0;aspect=fixed;shape=mxgraph.aws4.resourceIcon;resIcon=mxgraph.aws4.s3;labelPosition=left;" parent="1" vertex="1">
                    <mxGeometry x="1059.5" y="460.5" width="60.5" height="60.5" as="geometry"/>
                </mxCell>
                <mxCell id="5_7ZJfgjhLElHv1Okpnk-4" style="edgeStyle=none;html=1;shadow=0;strokeColor=#000000;strokeWidth=1;startArrow=none;startFill=0;endArrow=classic;endFill=1;fillColor=#e51400;" parent="1" source="5_7ZJfgjhLElHv1Okpnk-6" target="5_7ZJfgjhLElHv1Okpnk-1" edge="1">
                    <mxGeometry relative="1" as="geometry"/>
                </mxCell>
                <mxCell id="5_7ZJfgjhLElHv1Okpnk-5" value="CreateIcebergTable" style="edgeLabel;html=1;align=center;verticalAlign=middle;resizable=0;points=[];" parent="5_7ZJfgjhLElHv1Okpnk-4" vertex="1" connectable="0">
                    <mxGeometry x="-0.1496" y="2" relative="1" as="geometry">
                        <mxPoint x="4" y="-8" as="offset"/>
                    </mxGeometry>
                </mxCell>
                <mxCell id="5_7ZJfgjhLElHv1Okpnk-6" value="" style="sketch=0;points=[[0,0,0],[0.25,0,0],[0.5,0,0],[0.75,0,0],[1,0,0],[0,1,0],[0.25,1,0],[0.5,1,0],[0.75,1,0],[1,1,0],[0,0.25,0],[0,0.5,0],[0,0.75,0],[1,0.25,0],[1,0.5,0],[1,0.75,0]];outlineConnect=0;fontColor=#232F3E;gradientColor=#945DF2;gradientDirection=north;fillColor=#5A30B5;strokeColor=#ffffff;dashed=0;verticalLabelPosition=bottom;verticalAlign=top;align=center;html=1;fontSize=12;fontStyle=0;aspect=fixed;shape=mxgraph.aws4.resourceIcon;resIcon=mxgraph.aws4.athena;" parent="1" vertex="1">
                    <mxGeometry x="1180.5" y="380" width="59.5" height="59.5" as="geometry"/>
                </mxCell>
                <mxCell id="5_7ZJfgjhLElHv1Okpnk-7" value="&lt;div style=&quot;font-family: Consolas, &amp;quot;Courier New&amp;quot;, monospace; font-size: 14px; line-height: 100%;&quot;&gt;&lt;div style=&quot;line-height: 100%;&quot;&gt;CREATE TABLE IF NOT EXISTS &lt;b&gt;greengrass_data_iceberg&lt;/b&gt; (&lt;/div&gt;&lt;div style=&quot;line-height: 100%;&quot;&gt;&amp;nbsp; &amp;nbsp; &lt;span style=&quot;color: #cd3131;&quot;&gt;`&lt;/span&gt;&lt;span style=&quot;color: #795e26;&quot;&gt;id&lt;/span&gt;&lt;span style=&quot;color: #cd3131;&quot;&gt;`&lt;/span&gt; string,&lt;/div&gt;&lt;div style=&quot;line-height: 100%;&quot;&gt;&amp;nbsp; &amp;nbsp; &lt;span style=&quot;color: #cd3131;&quot;&gt;`timestamp`&lt;/span&gt; timestamp,&lt;/div&gt;&lt;div style=&quot;line-height: 100%;&quot;&gt;&amp;nbsp; &amp;nbsp; &lt;span style=&quot;color: #cd3131;&quot;&gt;`speed`&lt;/span&gt; &lt;span style=&quot;color: #267f99;&quot;&gt;int&lt;/span&gt;,&lt;/div&gt;&lt;div style=&quot;line-height: 100%;&quot;&gt;&amp;nbsp; &amp;nbsp; &lt;span style=&quot;color: #cd3131;&quot;&gt;`temperature`&lt;/span&gt; &lt;span style=&quot;color: #267f99;&quot;&gt;float&lt;/span&gt;,&lt;/div&gt;&lt;div style=&quot;line-height: 100%;&quot;&gt;&amp;nbsp; &amp;nbsp; &lt;span style=&quot;color: #cd3131;&quot;&gt;`location`&lt;/span&gt; struct&amp;lt;lat:&lt;span style=&quot;color: #267f99;&quot;&gt;float&lt;/span&gt;, lng:&lt;span style=&quot;color: #267f99;&quot;&gt;float&lt;/span&gt;&amp;gt;&lt;/div&gt;&lt;div style=&quot;line-height: 100%;&quot;&gt;)&lt;/div&gt;&lt;div style=&quot;line-height: 100%;&quot;&gt;PARTITIONED BY (hour(&lt;span style=&quot;color: #cd3131;&quot;&gt;`timestamp`&lt;/span&gt;))&lt;/div&gt;&lt;div style=&quot;line-height: 100%;&quot;&gt;LOCATION &lt;span style=&quot;color: #a31515;&quot;&gt;'s3://&lt;b&gt;robocat-iceberg&lt;/b&gt;/'&lt;/span&gt;&lt;/div&gt;&lt;div style=&quot;line-height: 100%;&quot;&gt;TBLPROPERTIES (&lt;/div&gt;&lt;div style=&quot;line-height: 100%;&quot;&gt;&amp;nbsp; &amp;nbsp; &lt;span style=&quot;color: #a31515;&quot;&gt;'table_type'&lt;/span&gt;=&lt;span style=&quot;color: #a31515;&quot;&gt;'&lt;b&gt;ICEBERG&lt;/b&gt;'&lt;/span&gt;,&lt;/div&gt;&lt;div style=&quot;line-height: 100%;&quot;&gt;&amp;nbsp; &amp;nbsp; &lt;span style=&quot;color: #a31515;&quot;&gt;'format'&lt;/span&gt;=&lt;span style=&quot;color: #a31515;&quot;&gt;'&lt;b&gt;parquet&lt;/b&gt;'&lt;/span&gt;&lt;/div&gt;&lt;div style=&quot;line-height: 100%;&quot;&gt;)&lt;/div&gt;&lt;/div&gt;" style="rounded=1;whiteSpace=wrap;html=1;fillColor=none;align=left;spacingLeft=10;comic=1;" parent="1" vertex="1">
                    <mxGeometry x="1170" y="465.25" width="480" height="220" as="geometry"/>
                </mxCell>
                <mxCell id="5_7ZJfgjhLElHv1Okpnk-8" value="&lt;span style=&quot;text-align: left;&quot;&gt;s3://robocat-&lt;b&gt;scratch&lt;/b&gt;&lt;/span&gt;" style="sketch=0;points=[[0,0,0],[0.25,0,0],[0.5,0,0],[0.75,0,0],[1,0,0],[0,1,0],[0.25,1,0],[0.5,1,0],[0.75,1,0],[1,1,0],[0,0.25,0],[0,0.5,0],[0,0.75,0],[1,0.25,0],[1,0.5,0],[1,0.75,0]];outlineConnect=0;fontColor=#232F3E;gradientColor=#60A337;gradientDirection=north;fillColor=#277116;strokeColor=#ffffff;dashed=0;verticalLabelPosition=middle;verticalAlign=middle;align=left;html=1;fontSize=12;fontStyle=0;aspect=fixed;shape=mxgraph.aws4.resourceIcon;resIcon=mxgraph.aws4.s3;labelPosition=right;" parent="1" vertex="1">
                    <mxGeometry x="1370.5" y="745.25" width="61" height="61" as="geometry"/>
                </mxCell>
                <mxCell id="5_7ZJfgjhLElHv1Okpnk-9" style="edgeStyle=none;html=1;entryX=0;entryY=0.5;entryDx=0;entryDy=0;entryPerimeter=0;strokeColor=#000000;strokeWidth=1;dashed=1;endArrow=none;endFill=0;textOpacity=30;opacity=30;exitX=1;exitY=0.5;exitDx=0;exitDy=0;exitPerimeter=0;" parent="1" source="5_7ZJfgjhLElHv1Okpnk-10" target="5_7ZJfgjhLElHv1Okpnk-16" edge="1">
                    <mxGeometry relative="1" as="geometry"/>
                </mxCell>
                <mxCell id="5_7ZJfgjhLElHv1Okpnk-10" value="&lt;span style=&quot;text-align: left;&quot;&gt;s3://robocat-&lt;b&gt;athena-queries&lt;/b&gt;&lt;/span&gt;" style="sketch=0;points=[[0,0,0],[0.25,0,0],[0.5,0,0],[0.75,0,0],[1,0,0],[0,1,0],[0.25,1,0],[0.5,1,0],[0.75,1,0],[1,1,0],[0,0.25,0],[0,0.5,0],[0,0.75,0],[1,0.25,0],[1,0.5,0],[1,0.75,0]];outlineConnect=0;fontColor=#232F3E;gradientColor=#60A337;gradientDirection=north;fillColor=#277116;strokeColor=#ffffff;dashed=0;verticalLabelPosition=middle;verticalAlign=middle;align=right;html=1;fontSize=12;fontStyle=0;aspect=fixed;shape=mxgraph.aws4.resourceIcon;resIcon=mxgraph.aws4.s3;labelPosition=left;" parent="1" vertex="1">
                    <mxGeometry x="1060" y="975.75" width="60.5" height="60.5" as="geometry"/>
                </mxCell>
                <mxCell id="5_7ZJfgjhLElHv1Okpnk-11" style="edgeStyle=none;html=1;shadow=0;strokeColor=#000000;strokeWidth=1;startArrow=none;startFill=0;endArrow=classic;endFill=1;fillColor=#d5e8d4;entryX=1;entryY=0.25;entryDx=0;entryDy=0;entryPerimeter=0;" parent="1" source="5_7ZJfgjhLElHv1Okpnk-14" target="5_7ZJfgjhLElHv1Okpnk-8" edge="1">
                    <mxGeometry relative="1" as="geometry">
                        <mxPoint x="1370.5" y="1005.1297634691196" as="targetPoint"/>
                        <Array as="points">
                            <mxPoint x="1570.5" y="1004.75"/>
                            <mxPoint x="1570.5" y="760.75"/>
                        </Array>
                    </mxGeometry>
                </mxCell>
                <mxCell id="5_7ZJfgjhLElHv1Okpnk-12" value="CreateTempTable" style="edgeLabel;html=1;align=center;verticalAlign=middle;resizable=0;points=[];" parent="5_7ZJfgjhLElHv1Okpnk-11" vertex="1" connectable="0">
                    <mxGeometry x="-0.1496" y="2" relative="1" as="geometry">
                        <mxPoint x="-249" y="-11" as="offset"/>
                    </mxGeometry>
                </mxCell>
                <mxCell id="5_7ZJfgjhLElHv1Okpnk-13" style="edgeStyle=none;html=1;shadow=0;strokeColor=#000000;strokeWidth=1;startArrow=none;startFill=0;endArrow=none;endFill=0;dashed=1;" parent="1" edge="1">
                    <mxGeometry relative="1" as="geometry">
                        <mxPoint x="1180" y="1004.2499999999995" as="sourcePoint"/>
                        <mxPoint x="1120" y="1004.2499999999995" as="targetPoint"/>
                    </mxGeometry>
                </mxCell>
                <mxCell id="5_7ZJfgjhLElHv1Okpnk-14" value="" style="sketch=0;points=[[0,0,0],[0.25,0,0],[0.5,0,0],[0.75,0,0],[1,0,0],[0,1,0],[0.25,1,0],[0.5,1,0],[0.75,1,0],[1,1,0],[0,0.25,0],[0,0.5,0],[0,0.75,0],[1,0.25,0],[1,0.5,0],[1,0.75,0]];outlineConnect=0;fontColor=#232F3E;gradientColor=#945DF2;gradientDirection=north;fillColor=#5A30B5;strokeColor=#ffffff;dashed=0;verticalLabelPosition=bottom;verticalAlign=top;align=center;html=1;fontSize=12;fontStyle=0;aspect=fixed;shape=mxgraph.aws4.resourceIcon;resIcon=mxgraph.aws4.athena;" parent="1" vertex="1">
                    <mxGeometry x="1181" y="974.75" width="59.5" height="59.5" as="geometry"/>
                </mxCell>
                <mxCell id="5_7ZJfgjhLElHv1Okpnk-15" value="&lt;span style=&quot;text-align: left;&quot;&gt;s3://robocat-&lt;b&gt;iceberg&lt;/b&gt;&lt;/span&gt;" style="sketch=0;points=[[0,0,0],[0.25,0,0],[0.5,0,0],[0.75,0,0],[1,0,0],[0,1,0],[0.25,1,0],[0.5,1,0],[0.75,1,0],[1,1,0],[0,0.25,0],[0,0.5,0],[0,0.75,0],[1,0.25,0],[1,0.5,0],[1,0.75,0]];outlineConnect=0;fontColor=#232F3E;gradientColor=#60A337;gradientDirection=north;fillColor=#277116;strokeColor=#ffffff;dashed=0;verticalLabelPosition=middle;verticalAlign=middle;align=left;html=1;fontSize=12;fontStyle=0;aspect=fixed;shape=mxgraph.aws4.resourceIcon;resIcon=mxgraph.aws4.s3;labelPosition=right;textOpacity=30;opacity=30;" parent="1" vertex="1">
                    <mxGeometry x="1370.5" y="895.25" width="61" height="61" as="geometry"/>
                </mxCell>
                <mxCell id="5_7ZJfgjhLElHv1Okpnk-16" value="" style="sketch=0;points=[[0,0,0],[0.25,0,0],[0.5,0,0],[0.75,0,0],[1,0,0],[0,1,0],[0.25,1,0],[0.5,1,0],[0.75,1,0],[1,1,0],[0,0.25,0],[0,0.5,0],[0,0.75,0],[1,0.25,0],[1,0.5,0],[1,0.75,0]];outlineConnect=0;fontColor=#232F3E;gradientColor=#945DF2;gradientDirection=north;fillColor=#5A30B5;strokeColor=#ffffff;dashed=0;verticalLabelPosition=bottom;verticalAlign=top;align=center;html=1;fontSize=12;fontStyle=0;aspect=fixed;shape=mxgraph.aws4.resourceIcon;resIcon=mxgraph.aws4.athena;textOpacity=30;opacity=30;" parent="1" vertex="1">
                    <mxGeometry x="1181" y="895.25" width="59.5" height="59.5" as="geometry"/>
                </mxCell>
                <mxCell id="5_7ZJfgjhLElHv1Okpnk-17" style="edgeStyle=none;html=1;shadow=0;strokeColor=#000000;strokeWidth=1;startArrow=none;startFill=0;endArrow=classic;endFill=1;fillColor=#e51400;exitX=1;exitY=0.5;exitDx=0;exitDy=0;exitPerimeter=0;entryX=0;entryY=0.5;entryDx=0;entryDy=0;entryPerimeter=0;textOpacity=30;opacity=30;" parent="1" source="5_7ZJfgjhLElHv1Okpnk-16" target="5_7ZJfgjhLElHv1Okpnk-15" edge="1">
                    <mxGeometry relative="1" as="geometry">
                        <mxPoint x="1130" y="735.2472798948752" as="sourcePoint"/>
                        <mxPoint x="1260" y="735.7597634691197" as="targetPoint"/>
                    </mxGeometry>
                </mxCell>
                <mxCell id="5_7ZJfgjhLElHv1Okpnk-18" value="CreateIcebergTable" style="edgeLabel;html=1;align=center;verticalAlign=middle;resizable=0;points=[];textOpacity=30;" parent="5_7ZJfgjhLElHv1Okpnk-17" vertex="1" connectable="0">
                    <mxGeometry x="-0.1496" y="2" relative="1" as="geometry">
                        <mxPoint x="4" y="-8" as="offset"/>
                    </mxGeometry>
                </mxCell>
                <mxCell id="5_7ZJfgjhLElHv1Okpnk-19" value="&lt;div style=&quot;font-family: Consolas, &amp;quot;Courier New&amp;quot;, monospace; font-size: 14px; line-height: 100%;&quot;&gt;&lt;div style=&quot;line-height: 100%;&quot;&gt;&lt;div style=&quot;line-height: 100%;&quot;&gt;&lt;div style=&quot;line-height: 100%;&quot;&gt;CREATE EXTERNAL TABLE IF NOT EXISTS &lt;b&gt;greengrass_data_iceberg_72495932c0b5 &lt;/b&gt;(&lt;/div&gt;&lt;div style=&quot;line-height: 100%;&quot;&gt;&amp;nbsp; &amp;nbsp; &lt;span style=&quot;color: #cd3131;&quot;&gt;`&lt;/span&gt;&lt;span style=&quot;color: #795e26;&quot;&gt;id&lt;/span&gt;&lt;span style=&quot;color: #cd3131;&quot;&gt;`&lt;/span&gt; string,&lt;/div&gt;&lt;div style=&quot;line-height: 100%;&quot;&gt;&amp;nbsp; &amp;nbsp; &lt;span style=&quot;color: #cd3131;&quot;&gt;`timestamp`&lt;/span&gt; timestamp,&lt;/div&gt;&lt;div style=&quot;line-height: 100%;&quot;&gt;&amp;nbsp; &amp;nbsp; &lt;span style=&quot;color: #cd3131;&quot;&gt;`speed`&lt;/span&gt; &lt;span style=&quot;color: #267f99;&quot;&gt;int&lt;/span&gt;,&lt;/div&gt;&lt;div style=&quot;line-height: 100%;&quot;&gt;&amp;nbsp; &amp;nbsp; &lt;span style=&quot;color: #cd3131;&quot;&gt;`temperature`&lt;/span&gt; &lt;span style=&quot;color: #267f99;&quot;&gt;float&lt;/span&gt;,&lt;/div&gt;&lt;div style=&quot;line-height: 100%;&quot;&gt;&amp;nbsp; &amp;nbsp; &lt;span style=&quot;color: #cd3131;&quot;&gt;`location`&lt;/span&gt; struct&amp;lt;lat:&lt;span style=&quot;color: #267f99;&quot;&gt;float&lt;/span&gt;, lng:&lt;span style=&quot;color: #267f99;&quot;&gt;float&lt;/span&gt;&amp;gt;&lt;/div&gt;&lt;div style=&quot;line-height: 100%;&quot;&gt;)&lt;/div&gt;&lt;div style=&quot;line-height: 100%;&quot;&gt;ROW FORMAT &lt;b&gt;SERDE &lt;span style=&quot;color: #a31515;&quot;&gt;'org.apache.hive.hcatalog.data.JsonSerDe'&lt;/span&gt;&lt;/b&gt;&lt;/div&gt;&lt;div style=&quot;line-height: 100%;&quot;&gt;WITH SERDEPROPERTIES ( &lt;span style=&quot;color: #a31515;&quot;&gt;&quot;timestamp.formats&quot;&lt;/span&gt;=&lt;span style=&quot;color: #a31515;&quot;&gt;&quot;&lt;b&gt;yyyy-MM-dd'T'HH:mm:ss.SSSSSSZZ&lt;/b&gt;&quot;&lt;/span&gt; )&lt;/div&gt;&lt;div style=&quot;line-height: 100%;&quot;&gt;LOCATION &lt;span style=&quot;color: rgb(163, 21, 21);&quot;&gt;'s3://&lt;b&gt;robocat-scratch&lt;/b&gt;/df922f53-4a0f-5f92-93f0-72495932c0b5'&lt;/span&gt;&lt;/div&gt;&lt;/div&gt;&lt;/div&gt;&lt;/div&gt;" style="rounded=1;whiteSpace=wrap;html=1;fillColor=none;align=left;spacingLeft=10;comic=1;" parent="1" vertex="1">
                    <mxGeometry x="1020" y="1045.25" width="630" height="170" as="geometry"/>
                </mxCell>
                <mxCell id="5_7ZJfgjhLElHv1Okpnk-20" value="&lt;span style=&quot;text-align: left;&quot;&gt;s3://robocat-&lt;b&gt;scratch&lt;/b&gt;&lt;/span&gt;" style="sketch=0;points=[[0,0,0],[0.25,0,0],[0.5,0,0],[0.75,0,0],[1,0,0],[0,1,0],[0.25,1,0],[0.5,1,0],[0.75,1,0],[1,1,0],[0,0.25,0],[0,0.5,0],[0,0.75,0],[1,0.25,0],[1,0.5,0],[1,0.75,0]];outlineConnect=0;fontColor=#232F3E;gradientColor=#60A337;gradientDirection=north;fillColor=#277116;strokeColor=#ffffff;dashed=0;verticalLabelPosition=middle;verticalAlign=middle;align=left;html=1;fontSize=12;fontStyle=0;aspect=fixed;shape=mxgraph.aws4.resourceIcon;resIcon=mxgraph.aws4.s3;labelPosition=right;" parent="1" vertex="1">
                    <mxGeometry x="1370" y="1285.25" width="61" height="61" as="geometry"/>
                </mxCell>
                <mxCell id="5_7ZJfgjhLElHv1Okpnk-21" style="edgeStyle=none;html=1;entryX=0;entryY=0.5;entryDx=0;entryDy=0;entryPerimeter=0;strokeColor=#000000;strokeWidth=1;dashed=1;endArrow=none;endFill=0;textOpacity=30;opacity=30;exitX=1;exitY=0.5;exitDx=0;exitDy=0;exitPerimeter=0;" parent="1" source="5_7ZJfgjhLElHv1Okpnk-22" target="5_7ZJfgjhLElHv1Okpnk-28" edge="1">
                    <mxGeometry relative="1" as="geometry"/>
                </mxCell>
                <mxCell id="5_7ZJfgjhLElHv1Okpnk-22" value="&lt;span style=&quot;text-align: left;&quot;&gt;s3://robocat-&lt;b&gt;athena-queries&lt;/b&gt;&lt;/span&gt;" style="sketch=0;points=[[0,0,0],[0.25,0,0],[0.5,0,0],[0.75,0,0],[1,0,0],[0,1,0],[0.25,1,0],[0.5,1,0],[0.75,1,0],[1,1,0],[0,0.25,0],[0,0.5,0],[0,0.75,0],[1,0.25,0],[1,0.5,0],[1,0.75,0]];outlineConnect=0;fontColor=#232F3E;gradientColor=#60A337;gradientDirection=north;fillColor=#277116;strokeColor=#ffffff;dashed=0;verticalLabelPosition=middle;verticalAlign=middle;align=right;html=1;fontSize=12;fontStyle=0;aspect=fixed;shape=mxgraph.aws4.resourceIcon;resIcon=mxgraph.aws4.s3;labelPosition=left;" parent="1" vertex="1">
                    <mxGeometry x="1059.5" y="1515.75" width="60.5" height="60.5" as="geometry"/>
                </mxCell>
                <mxCell id="5_7ZJfgjhLElHv1Okpnk-23" style="edgeStyle=none;html=1;shadow=0;strokeColor=#000000;strokeWidth=1;startArrow=none;startFill=0;endArrow=classic;endFill=1;fillColor=#d5e8d4;entryX=1;entryY=0.25;entryDx=0;entryDy=0;entryPerimeter=0;textOpacity=30;opacity=30;" parent="1" source="5_7ZJfgjhLElHv1Okpnk-26" target="5_7ZJfgjhLElHv1Okpnk-20" edge="1">
                    <mxGeometry relative="1" as="geometry">
                        <mxPoint x="1370" y="1545.1297634691196" as="targetPoint"/>
                        <Array as="points">
                            <mxPoint x="1570" y="1544.75"/>
                            <mxPoint x="1570" y="1300.75"/>
                        </Array>
                    </mxGeometry>
                </mxCell>
                <mxCell id="5_7ZJfgjhLElHv1Okpnk-24" value="CreateTempTable" style="edgeLabel;html=1;align=center;verticalAlign=middle;resizable=0;points=[];textOpacity=30;" parent="5_7ZJfgjhLElHv1Okpnk-23" vertex="1" connectable="0">
                    <mxGeometry x="-0.1496" y="2" relative="1" as="geometry">
                        <mxPoint x="-249" y="-11" as="offset"/>
                    </mxGeometry>
                </mxCell>
                <mxCell id="5_7ZJfgjhLElHv1Okpnk-25" style="edgeStyle=none;html=1;entryX=1;entryY=0.5;entryDx=0;entryDy=0;entryPerimeter=0;shadow=0;strokeColor=#000000;strokeWidth=1;startArrow=none;startFill=0;endArrow=none;endFill=0;dashed=1;opacity=30;" parent="1" target="5_7ZJfgjhLElHv1Okpnk-22" edge="1">
                    <mxGeometry relative="1" as="geometry">
                        <mxPoint x="1179.5" y="1546.25" as="sourcePoint"/>
                    </mxGeometry>
                </mxCell>
                <mxCell id="5_7ZJfgjhLElHv1Okpnk-26" value="" style="sketch=0;points=[[0,0,0],[0.25,0,0],[0.5,0,0],[0.75,0,0],[1,0,0],[0,1,0],[0.25,1,0],[0.5,1,0],[0.75,1,0],[1,1,0],[0,0.25,0],[0,0.5,0],[0,0.75,0],[1,0.25,0],[1,0.5,0],[1,0.75,0]];outlineConnect=0;fontColor=#232F3E;gradientColor=#945DF2;gradientDirection=north;fillColor=#5A30B5;strokeColor=#ffffff;dashed=0;verticalLabelPosition=bottom;verticalAlign=top;align=center;html=1;fontSize=12;fontStyle=0;aspect=fixed;shape=mxgraph.aws4.resourceIcon;resIcon=mxgraph.aws4.athena;opacity=30;" parent="1" vertex="1">
                    <mxGeometry x="1180.5" y="1514.75" width="59.5" height="59.5" as="geometry"/>
                </mxCell>
                <mxCell id="5_7ZJfgjhLElHv1Okpnk-27" value="&lt;span style=&quot;text-align: left;&quot;&gt;s3://robocat-&lt;b&gt;iceberg&lt;/b&gt;&lt;/span&gt;" style="sketch=0;points=[[0,0,0],[0.25,0,0],[0.5,0,0],[0.75,0,0],[1,0,0],[0,1,0],[0.25,1,0],[0.5,1,0],[0.75,1,0],[1,1,0],[0,0.25,0],[0,0.5,0],[0,0.75,0],[1,0.25,0],[1,0.5,0],[1,0.75,0]];outlineConnect=0;fontColor=#232F3E;gradientColor=#60A337;gradientDirection=north;fillColor=#277116;strokeColor=#ffffff;dashed=0;verticalLabelPosition=middle;verticalAlign=middle;align=left;html=1;fontSize=12;fontStyle=0;aspect=fixed;shape=mxgraph.aws4.resourceIcon;resIcon=mxgraph.aws4.s3;labelPosition=right;" parent="1" vertex="1">
                    <mxGeometry x="1370" y="1435.25" width="61" height="61" as="geometry"/>
                </mxCell>
                <mxCell id="5_7ZJfgjhLElHv1Okpnk-28" value="" style="sketch=0;points=[[0,0,0],[0.25,0,0],[0.5,0,0],[0.75,0,0],[1,0,0],[0,1,0],[0.25,1,0],[0.5,1,0],[0.75,1,0],[1,1,0],[0,0.25,0],[0,0.5,0],[0,0.75,0],[1,0.25,0],[1,0.5,0],[1,0.75,0]];outlineConnect=0;fontColor=#232F3E;gradientColor=#945DF2;gradientDirection=north;fillColor=#5A30B5;strokeColor=#ffffff;dashed=0;verticalLabelPosition=bottom;verticalAlign=top;align=center;html=1;fontSize=12;fontStyle=0;aspect=fixed;shape=mxgraph.aws4.resourceIcon;resIcon=mxgraph.aws4.athena;textOpacity=30;opacity=30;" parent="1" vertex="1">
                    <mxGeometry x="1180.5" y="1435.25" width="59.5" height="59.5" as="geometry"/>
                </mxCell>
                <mxCell id="5_7ZJfgjhLElHv1Okpnk-29" style="edgeStyle=none;html=1;shadow=0;strokeColor=#000000;strokeWidth=1;startArrow=none;startFill=0;endArrow=classic;endFill=1;fillColor=#e51400;exitX=1;exitY=0.5;exitDx=0;exitDy=0;exitPerimeter=0;entryX=0;entryY=0.5;entryDx=0;entryDy=0;entryPerimeter=0;textOpacity=30;opacity=30;" parent="1" source="5_7ZJfgjhLElHv1Okpnk-28" target="5_7ZJfgjhLElHv1Okpnk-27" edge="1">
                    <mxGeometry relative="1" as="geometry">
                        <mxPoint x="1129.5" y="1275.2472798948752" as="sourcePoint"/>
                        <mxPoint x="1259.5" y="1275.7597634691197" as="targetPoint"/>
                    </mxGeometry>
                </mxCell>
                <mxCell id="5_7ZJfgjhLElHv1Okpnk-30" value="CreateIcebergTable" style="edgeLabel;html=1;align=center;verticalAlign=middle;resizable=0;points=[];textOpacity=30;" parent="5_7ZJfgjhLElHv1Okpnk-29" vertex="1" connectable="0">
                    <mxGeometry x="-0.1496" y="2" relative="1" as="geometry">
                        <mxPoint x="4" y="-8" as="offset"/>
                    </mxGeometry>
                </mxCell>
                <mxCell id="5_7ZJfgjhLElHv1Okpnk-31" value="&lt;div style=&quot;font-family: Consolas, &amp;quot;Courier New&amp;quot;, monospace; font-size: 14px; line-height: 100%;&quot;&gt;&lt;div style=&quot;line-height: 100%;&quot;&gt;&lt;div style=&quot;line-height: 100%;&quot;&gt;&lt;div style=&quot;line-height: 100%;&quot;&gt;&lt;div style=&quot;line-height: 19px;&quot;&gt;&lt;div style=&quot;&quot;&gt;INSERT INTO &lt;b&gt;greengrass_data_iceberg &lt;/b&gt;&lt;/div&gt;&lt;div style=&quot;&quot;&gt;SELECT * FROM &lt;b&gt;greengrass_data_iceberg_72495932c0b5&lt;/b&gt;&lt;/div&gt;&lt;/div&gt;&lt;/div&gt;&lt;/div&gt;&lt;/div&gt;&lt;/div&gt;" style="rounded=1;whiteSpace=wrap;html=1;fillColor=none;align=left;spacingLeft=10;comic=1;" parent="1" vertex="1">
                    <mxGeometry x="1169.5" y="1665.25" width="420" height="70" as="geometry"/>
                </mxCell>
                <mxCell id="5_7ZJfgjhLElHv1Okpnk-32" value="" style="sketch=0;points=[[0,0,0],[0.25,0,0],[0.5,0,0],[0.75,0,0],[1,0,0],[0,1,0],[0.25,1,0],[0.5,1,0],[0.75,1,0],[1,1,0],[0,0.25,0],[0,0.5,0],[0,0.75,0],[1,0.25,0],[1,0.5,0],[1,0.75,0]];outlineConnect=0;fontColor=#232F3E;gradientColor=#945DF2;gradientDirection=north;fillColor=#5A30B5;strokeColor=#ffffff;dashed=0;verticalLabelPosition=bottom;verticalAlign=top;align=center;html=1;fontSize=12;fontStyle=0;aspect=fixed;shape=mxgraph.aws4.resourceIcon;resIcon=mxgraph.aws4.athena;" parent="1" vertex="1">
                    <mxGeometry x="1180.5" y="1595.25" width="59.5" height="59.5" as="geometry"/>
                </mxCell>
                <mxCell id="5_7ZJfgjhLElHv1Okpnk-33" style="edgeStyle=none;html=1;shadow=0;strokeColor=#000000;strokeWidth=1;startArrow=none;startFill=0;endArrow=classic;endFill=1;exitX=1;exitY=0.5;exitDx=0;exitDy=0;exitPerimeter=0;entryX=0.5;entryY=1;entryDx=0;entryDy=0;entryPerimeter=0;fillColor=#ffe6cc;" parent="1" source="5_7ZJfgjhLElHv1Okpnk-32" target="5_7ZJfgjhLElHv1Okpnk-27" edge="1">
                    <mxGeometry relative="1" as="geometry">
                        <mxPoint x="1280.5" y="1636.2472798948752" as="sourcePoint"/>
                        <mxPoint x="1401" y="1500.75" as="targetPoint"/>
                        <Array as="points">
                            <mxPoint x="1401.5" y="1625.25"/>
                        </Array>
                    </mxGeometry>
                </mxCell>
                <mxCell id="5_7ZJfgjhLElHv1Okpnk-34" value="CopyFromTempToIceberg" style="edgeLabel;html=1;align=center;verticalAlign=middle;resizable=0;points=[];" parent="5_7ZJfgjhLElHv1Okpnk-33" vertex="1" connectable="0">
                    <mxGeometry x="-0.1496" y="2" relative="1" as="geometry">
                        <mxPoint x="-48" y="-8" as="offset"/>
                    </mxGeometry>
                </mxCell>
                <mxCell id="5_7ZJfgjhLElHv1Okpnk-35" style="edgeStyle=none;html=1;shadow=0;strokeColor=#000000;strokeWidth=1;startArrow=none;startFill=0;endArrow=classic;endFill=1;fillColor=#ffe6cc;" parent="1" target="5_7ZJfgjhLElHv1Okpnk-27" edge="1">
                    <mxGeometry relative="1" as="geometry">
                        <mxPoint x="1431.5" y="1335.25" as="sourcePoint"/>
                        <mxPoint x="1401" y="1500.75" as="targetPoint"/>
                        <Array as="points">
                            <mxPoint x="1560.5" y="1335.25"/>
                            <mxPoint x="1559.5" y="1625.25"/>
                            <mxPoint x="1401.5" y="1625.25"/>
                        </Array>
                    </mxGeometry>
                </mxCell>
                <mxCell id="5_7ZJfgjhLElHv1Okpnk-36" style="edgeStyle=none;html=1;entryX=1;entryY=0.5;entryDx=0;entryDy=0;entryPerimeter=0;shadow=0;strokeColor=#000000;strokeWidth=1;startArrow=none;startFill=0;endArrow=none;endFill=0;dashed=1;exitX=0;exitY=0.5;exitDx=0;exitDy=0;exitPerimeter=0;" parent="1" source="5_7ZJfgjhLElHv1Okpnk-32" target="5_7ZJfgjhLElHv1Okpnk-22" edge="1">
                    <mxGeometry relative="1" as="geometry">
                        <mxPoint x="1190.5" y="1554.9944598337952" as="sourcePoint"/>
                        <mxPoint x="1130" y="1556" as="targetPoint"/>
                    </mxGeometry>
                </mxCell>
            </root>
        </mxGraphModel>
    </diagram>
</mxfile>